<?xml version="1.0" encoding="UTF-8"?>
<svg id="Layer_1" xmlns="http://www.w3.org/2000/svg" version="1.1" viewBox="0 0 1000 767.38">
  <!-- Generator: Adobe Illustrator 30.4.0, SVG Export Plug-In . SVG Version: 2.1.4 Build 226)  -->
  <defs>
    <style>
      .st0 {
        fill: #f5ad1e;
      }

      .st1 {
        fill: #0a0a0a;
      }
    </style>
  </defs>
  <path class="st0" d="M940.45,425h-344.81v96.62h344.81c19.11,0,34.61-15.45,34.61-34.52v-27.59c0-19.06-15.49-34.52-34.61-34.52h0Z"/>
  <path class="st0" d="M227.22,425H59.55c-19.11,0-34.61,15.45-34.61,34.52v27.59c0,19.06,15.49,34.52,34.61,34.52h344.81v-96.62h-177.14,0Z"/>
  <path class="st1" d="M796.98,404.05H268.69c-36,0-65.19-29.19-65.19-65.19v-102.98c0-36,29.19-65.19,65.19-65.19l428.54-7.24c36,0,95.16,66.72,95.16,102.72l14.73,84.21c0,36,25.86,53.67-10.15,53.67Z"/>
  <path class="st0" d="M860.77,410.96c0-198.87-161.63-360.09-361.02-360.09S138.73,212.09,138.73,410.96c0,.3,0,.6,0,.91h280.68v243.84c0,30.7,25.18,55.82,55.96,55.82h48.74c30.78,0,55.96-25.12,55.96-55.82v-243.84h280.68c0-.3.01-.6.01-.91h0ZM358.5,350.38c-46.51,0-84.21-37.7-84.21-84.21s37.7-84.21,84.21-84.21,84.21,37.7,84.21,84.21-37.7,84.21-84.21,84.21ZM639.04,350.38c-46.51,0-84.21-37.7-84.21-84.21s37.7-84.21,84.21-84.21,84.21,37.7,84.21,84.21-37.7,84.21-84.21,84.21Z"/>
</svg>