<?xml version="1.0" encoding="UTF-8"?>
<svg id="Layer_1" xmlns="http://www.w3.org/2000/svg" version="1.1" viewBox="0 0 1117.37 1158.12">
  <!-- Generator: Adobe Illustrator 30.4.0, SVG Export Plug-In . SVG Version: 2.1.4 Build 226)  -->
  <defs>
    <style>
      .st0 {
        fill: #f5ad1e;
      }

      .st1 {
        fill: #0a0a0a;
      }
    </style>
  </defs>
  <g id="Layer_2">
    <circle class="st1" cx="558.68" cy="583.6" r="557.52"/>
  </g>
  <g id="Layer_11" data-name="Layer_1">
    <g>
      <path class="st0" d="M1018.75,629.35h-360.17v100.92h360.17c19.96,0,36.15-16.14,36.15-36.06v-28.82c0-19.91-16.18-36.06-36.15-36.06h0v.02Z"/>
      <path class="st0" d="M273.75,629.35H98.62c-19.96,0-36.15,16.14-36.15,36.06v28.82c0,19.91,16.18,36.06,36.15,36.06h360.17v-100.92h-185.03v-.02Z"/>
      <path class="st1" d="M868.89,607.47H317.07c-37.61,0-68.1-30.49-68.1-68.1v-107.57c0-37.61,30.49-68.1,68.1-68.1l447.63-7.56c37.61,0,99.4,69.69,99.4,107.3l15.38,87.96c0,37.61,27.01,56.06-10.6,56.06h0Z"/>
      <path class="st0" d="M935.52,614.68c0-207.73-168.83-376.13-377.1-376.13s-377.1,168.4-377.1,376.13c0,.31,0,.63,0,.95h293.18v254.7c0,32.07,26.3,58.31,58.45,58.31h50.91c32.15,0,58.45-26.24,58.45-58.31v-254.7h293.18c0-.31.01-.63.01-.95h.01ZM410.88,551.41c-48.58,0-87.96-39.38-87.96-87.96s39.38-87.96,87.96-87.96,87.96,39.38,87.96,87.96-39.38,87.96-87.96,87.96ZM703.92,551.41c-48.58,0-87.96-39.38-87.96-87.96s39.38-87.96,87.96-87.96,87.96,39.38,87.96,87.96-39.38,87.96-87.96,87.96Z"/>
    </g>
  </g>
</svg>