<?xml version="1.0" encoding="UTF-8"?>
<svg id="Layer_1" xmlns="http://www.w3.org/2000/svg" version="1.1" viewBox="0 0 560.35 140.6">
  <!-- Generator: Adobe Illustrator 30.4.0, SVG Export Plug-In . SVG Version: 2.1.4 Build 226)  -->
  <defs>
    <style>
      .st0 {
        fill: #f5ad1e;
      }

      .st1 {
        fill: #f6ad1e;
      }
    </style>
  </defs>
  <g>
    <path class="st0" d="M525.81,37.64c0-12.39-10.07-22.44-22.5-22.44s-22.5,10.05-22.5,22.44v.06h17.49v15.2c0,1.91,1.57,3.48,3.49,3.48h3.04c1.92,0,3.49-1.57,3.49-3.48v-15.2h17.49v-.06h0ZM494.51,33.87c-2.9,0-5.25-2.35-5.25-5.25s2.35-5.25,5.25-5.25,5.25,2.35,5.25,5.25-2.35,5.25-5.25,5.25ZM511.99,33.87c-2.9,0-5.25-2.35-5.25-5.25s2.35-5.25,5.25-5.25,5.25,2.35,5.25,5.25-2.35,5.25-5.25,5.25Z"/>
    <path class="st0" d="M530.78,38.52h-21.49v6.02h21.49c1.19,0,2.16-.96,2.16-2.15v-1.72c0-1.19-.97-2.15-2.16-2.15h0Z"/>
    <path class="st0" d="M486.32,38.52h-10.45c-1.19,0-2.16.96-2.16,2.15v1.72c0,1.19.97,2.15,2.16,2.15h21.49v-6.02h-11.04,0Z"/>
  </g>
  <g>
    <path class="st1" d="M58.48,75.83c0,1.35-.29,2.78-.87,4.29-.58,1.51-1.45,2.96-2.62,4.34-1.17,1.38-2.64,2.51-4.42,3.38-1.78.87-3.84,1.3-6.18,1.3s-4.62-.5-6.9-1.51c-2.28-1.01-4.22-2.51-5.81-4.5-.69,1.59-1.13,3.06-1.32,4.41h-2.96v-14.93h2.96c.54,2.15,1.28,4.16,2.22,6.05.94,1.89,2.28,3.51,4.01,4.87,1.73,1.36,3.84,2.04,6.35,2.04,2.19,0,3.94-.6,5.26-1.8,1.32-1.2,1.98-2.71,1.98-4.54,0-1.03-.2-1.93-.61-2.7-.41-.77-1-1.46-1.77-2.07-.77-.61-1.83-1.27-3.17-1.96-1.34-.7-2.87-1.43-4.58-2.2-2.64-1.24-4.8-2.5-6.5-3.76-1.69-1.26-2.98-2.49-3.84-3.68s-1.47-2.32-1.8-3.39-.5-2.16-.5-3.25c0-1.95.53-3.88,1.58-5.77s2.59-3.45,4.62-4.66c2.03-1.21,4.37-1.82,7.03-1.82,2.04,0,3.98.46,5.82,1.37,1.84.91,3.44,2.16,4.79,3.75.39-.9.74-2.17,1.06-3.8h3.02v12.16h-3.02c-2.15-6.63-5.88-9.94-11.19-9.94-1.93,0-3.48.51-4.65,1.53-1.17,1.02-1.75,2.33-1.75,3.94,0,1.27.36,2.36,1.09,3.3.73.93,1.69,1.73,2.88,2.4,1.19.67,3.12,1.62,5.77,2.86,3.22,1.52,5.73,2.84,7.54,3.96,1.81,1.12,3.35,2.52,4.6,4.21,1.25,1.69,1.88,3.74,1.88,6.14Z"/>
    <path class="st1" d="M90.4,66.02c0,1.24-.38,2.23-1.14,2.94-.76.72-1.66,1.08-2.69,1.08-1.22,0-2.3-.6-3.22-1.8-.43-.54-.78-.92-1.06-1.16-.28-.24-.68-.35-1.19-.35-1.67,0-2.98.91-3.91,2.72-.93,1.81-1.4,3.69-1.4,5.65v5.6c0,1.8.23,3.04.69,3.7.46.67,1.68,1,3.65,1h1.71v2.96h-19.98v-2.96h1.67c1.8,0,2.91-.34,3.31-1.03.41-.69.61-1.91.61-3.67v-9.39c0-1.44-.15-2.47-.43-3.09-.29-.62-.81-1.03-1.56-1.24-.75-.2-1.95-.31-3.6-.31v-2.96l12.55-2.77c.32,1.09.62,3.42.9,6.98.6-1.27,1.39-2.42,2.36-3.47.98-1.05,2.07-1.9,3.28-2.54,1.21-.64,2.45-.97,3.72-.97,1.76,0,3.15.49,4.18,1.48,1.03.99,1.54,2.19,1.54,3.6Z"/>
    <path class="st1" d="M98.5,84.39c0,1.42-.49,2.61-1.48,3.57-.99.96-2.18,1.45-3.57,1.45s-2.55-.48-3.54-1.45c-.99-.97-1.48-2.16-1.48-3.57s.48-2.62,1.45-3.6c.96-.99,2.16-1.48,3.57-1.48s2.61.49,3.59,1.46c.98.98,1.46,2.18,1.46,3.62Z"/>
  </g>
  <g>
    <path class="st0" d="M149.96,70.34v27.97c0,4.75.85,8.01,2.53,9.79,1.69,1.78,5.33,2.66,10.91,2.66v8.32h-54.31v-8.32c5.48,0,9.13-.84,10.95-2.51,1.82-1.67,2.73-4.99,2.73-9.94v-60.15c0-4.8-.86-8.07-2.57-9.82-1.72-1.75-5.42-2.62-11.1-2.62v-8.32h54.31v8.32c-5.43,0-9.03.86-10.79,2.59s-2.65,5.01-2.65,9.86v22.8h42.78v-22.8c0-4.7-.83-7.95-2.5-9.75-1.66-1.8-5.24-2.7-10.72-2.7v-8.32h54.15v8.32c-5.53,0-9.21.83-11.02,2.48-1.82,1.65-2.73,4.98-2.73,9.97v60.15c0,4.85.87,8.14,2.61,9.86,1.74,1.73,5.45,2.59,11.14,2.59v8.32h-54.15v-8.32c5.38,0,8.92-.87,10.64-2.62,1.71-1.75,2.57-5.02,2.57-9.82v-27.97h-42.78Z"/>
    <path class="st0" d="M276.85,55.19v45.97c0,3.8.61,6.41,1.84,7.84s4.1,2.14,8.6,2.14v7.95h-47.01v-7.95h1.77c4.35,0,7.1-.75,8.26-2.25s1.73-4.07,1.73-7.72v-22.35c0-3.7-.59-6.29-1.77-7.76-1.18-1.47-3.92-2.21-8.22-2.21h-1.77v-7.95l36.56-5.7ZM250.97,29.16c0-3.7,1.36-6.89,4.07-9.56,2.71-2.67,5.96-4.01,9.75-4.01s7.09,1.33,9.75,3.98c2.66,2.65,3.99,5.85,3.99,9.6s-1.34,6.95-4.03,9.6c-2.69,2.65-5.93,3.97-9.72,3.97s-7.23-1.36-9.87-4.09c-2.64-2.72-3.96-5.89-3.96-9.49Z"/>
    <path class="st0" d="M349.21,110.53c-3.58,3.3-7.39,5.79-11.41,7.46-4.02,1.67-8.26,2.51-12.71,2.51-8.25,0-15.11-2.59-20.58-7.76-5.48-5.17-8.22-13.06-8.22-23.66,0-11.75,3.07-20.34,9.22-25.76,6.15-5.42,13.44-8.14,21.89-8.14,4.66,0,8.81.68,12.44,2.02,3.64,1.35,6.76,3.38,9.37,6.07v-24.22c0-3.75-.6-6.34-1.8-7.76-1.2-1.43-4.01-2.14-8.41-2.14v-8.02l35.03-5.55v83.4c0,4.25.73,6.99,2.19,8.21,1.46,1.23,4.26,1.84,8.41,1.84v8.47c-14.95.55-26.14,1.55-33.57,3-1.23-2.6-1.84-5.92-1.84-9.97ZM349.21,100.18v-27.9c-2.2-2.1-4.42-3.66-6.64-4.69-2.23-1.02-4.44-1.54-6.64-1.54-4.46,0-7.8,1.73-10.02,5.17s-3.34,8.65-3.34,15.6c0,7.5,1.01,13.12,3.03,16.87,2.02,3.75,5.06,5.62,9.1,5.62,2.77,0,5.54-.84,8.33-2.51,2.79-1.67,4.85-3.89,6.18-6.64Z"/>
    <path class="st0" d="M420.26,87.66c0,8.15,1.42,14.27,4.26,18.37,2.84,4.1,7.1,6.15,12.79,6.15,6.04,0,11.6-3,16.67-9l7.14,4.2c-2.92,4.1-7.11,7.49-12.56,10.16-5.45,2.67-11.48,4.01-18.09,4.01-10.14,0-18.82-3.01-26.04-9.04-7.22-6.02-10.83-14.16-10.83-24.41s3.5-18.3,10.48-24.15c6.99-5.85,15.4-8.77,25.23-8.77s17.99,2.69,24.31,8.06c6.32,5.38,9.49,13.51,9.49,24.41h-42.86ZM420.18,80.09h19.43c-.31-11.05-3.61-16.57-9.91-16.57-3.18,0-5.56,1.38-7.14,4.12-1.59,2.75-2.38,6.9-2.38,12.45Z"/>
  </g>
</svg>